<svg width="200" height="81" viewBox="0 0 200 81" fill="none" xmlns="http://www.w3.org/2000/svg">
<path d="M30.0293 39.8125H30.3769C30.4932 40.6218 30.7251 40.7375 31.2471 40.7375H49.6334C50.1554 40.7375 50.3873 40.6218 50.503 39.8125H50.8512V44.2072H50.503C50.3873 43.3979 50.1554 43.2822 49.6334 43.2822H41.9193V60.7754C41.9193 61.3248 42.0931 61.4405 42.847 61.4405V61.7876H38.0335V61.4405C38.7874 61.4405 38.9612 61.3248 38.9612 60.7754V43.2822H31.2471C30.7251 43.2822 30.4932 43.3979 30.3769 44.2072H30.0293V39.8125Z" fill="white"/>
<path d="M57.1695 59.2429H72.0758C72.5978 59.2429 72.8297 59.1272 72.9459 58.3179H73.2941V62.7126H72.9459C72.8297 61.9033 72.5978 61.7876 72.0758 61.7876H53.3418V61.4405C54.0376 61.4405 54.212 61.3248 54.212 60.7754V41.7497C54.212 41.2003 54.0376 41.0846 53.3418 41.0846V40.7375H72.0758C72.5978 40.7375 72.8297 40.6218 72.9459 39.8125H73.2941V44.2072H72.9459C72.8297 43.3979 72.5978 43.2822 72.0758 43.2822H57.1695V49.9326H67.6098C68.1318 49.9326 68.3637 49.8169 68.48 49.0071H68.8276V53.518H68.48C68.3637 52.5925 68.1318 52.4773 67.6098 52.4773H57.1695V59.2429Z" fill="white"/>
<path d="M76.9453 61.7864V61.4394C77.6992 61.4394 77.8731 61.3237 77.8731 60.7743V41.7485C77.8731 41.1991 77.6992 41.0834 76.9453 41.0834V40.7363H90.4885C94.7515 40.7363 97.5934 42.9921 97.5934 46.6932C97.5934 50.1628 95.3026 52.3605 91.9097 52.389L97.1295 60.8324C97.4196 61.2952 97.6225 61.4103 98.2892 61.4394V61.7864H92.8084V61.4394C93.5913 61.4103 93.7942 61.2952 93.7942 60.9481C93.7942 60.6301 93.6204 60.3987 93.0984 59.5312L88.8934 52.707H80.8312V60.7743C80.8312 61.3237 81.0055 61.4394 81.7595 61.4394V61.7864L76.9453 61.7864ZM80.8312 50.1629H91.0686C92.8955 50.1629 94.6353 49.2954 94.6353 46.5193C94.6353 44.8135 93.2722 43.281 90.4885 43.281H80.8312V50.1629Z" fill="white"/>
<path d="M101.939 61.7864V61.4394C102.693 61.4394 102.867 61.3237 102.867 60.7743V41.7485C102.867 41.1991 102.693 41.0834 101.939 41.0834V40.7363H115.483C119.746 40.7363 122.588 42.9921 122.588 46.6932C122.588 50.1628 120.297 52.3605 116.903 52.389L122.124 60.8324C122.414 61.2952 122.617 61.4103 123.283 61.4394V61.7864H117.802V61.4394C118.585 61.4103 118.788 61.2952 118.788 60.9481C118.788 60.6301 118.615 60.3987 118.093 59.5312L113.888 52.707H105.825V60.7743C105.825 61.3237 106 61.4394 106.754 61.4394V61.7864L101.939 61.7864ZM105.825 50.1629H116.063C117.89 50.1629 119.629 49.2954 119.629 46.5193C119.629 44.8135 118.266 43.281 115.483 43.281H105.825V50.1629Z" fill="white"/>
<path d="M130.386 55.9459C128.53 60.4272 128.356 60.8033 128.356 60.9481C128.356 61.1795 128.443 61.3527 128.878 61.4394V61.7864H124.586V61.4394C125.514 61.4103 125.485 61.1795 126.297 59.3574L133.75 42.1532C133.828 41.9674 133.887 41.7736 133.924 41.5752C133.924 41.2572 133.779 41.17 133.315 41.0834V40.7363H138.825V41.0834C138.564 41.17 138.216 41.2572 138.216 41.5752C138.28 41.8464 138.377 42.1086 138.506 42.356L146.974 60.601C147.264 61.237 147.293 61.3237 148.076 61.4394V61.7864H143.262V61.4394C143.639 61.4103 143.813 61.2952 143.813 61.0923C143.813 60.6586 143.523 60.3696 141.667 55.9459H130.386ZM131.459 53.4012H140.565L135.896 43.0496L131.459 53.4012Z" fill="white"/>
<path d="M148.451 39.8125H148.799C148.915 40.6218 149.147 40.7375 149.669 40.7375H168.055C168.577 40.7375 168.809 40.6218 168.925 39.8125H169.273V44.2072H168.925C168.809 43.3979 168.577 43.2822 168.055 43.2822H160.341V60.7754C160.341 61.3248 160.515 61.4405 161.269 61.4405V61.7876H156.455V61.4405C157.209 61.4405 157.383 61.3248 157.383 60.7754V43.2822H149.669C149.147 43.2822 148.915 43.3979 148.799 44.2072H148.451V39.8125Z" fill="white"/>
<path d="M68.5503 14.7303L68.3589 14.5817C68.4064 14.4602 68.4282 14.3303 68.4231 14.2C68.4231 13.5421 65.551 11.7815 62.7004 11.7815C58.893 11.7815 55.7868 14.2423 55.7868 18.1243C55.7868 21.6241 59.0202 24.0849 62.2749 24.0849C64.381 24.0849 66.4656 23.6183 68.1676 22.3243V19.8427H64.1682C63.7855 19.8427 63.615 19.8427 63.53 20.3943H63.275V17.5091H63.53C63.615 17.8907 63.7855 18.0607 64.1682 18.0607H70.8477V18.3151C70.5077 18.4001 70.3372 18.5695 70.3372 19.0367V23.1303C68.0398 25.0609 65.8066 25.8669 62.4877 25.8669C57.8293 25.8669 53.6172 22.9818 53.6172 18.0179C53.6172 13.2241 57.957 10 62.6368 10C66.572 10 69.0608 12.015 69.529 12.015C69.7417 12.015 69.8695 11.8664 70.0395 11.7392L70.2522 11.8242L68.5503 14.7303Z" fill="white"/>
<path d="M73.8438 25.6554V25.401C74.397 25.401 74.5248 25.316 74.5248 24.913V10.9553C74.5248 10.5517 74.397 10.4673 73.8438 10.4673V10.2129H83.7779C86.9049 10.2129 88.9896 11.8671 88.9896 14.5824C88.9896 17.1282 87.309 18.7402 84.8203 18.7616L88.6497 24.9553C88.8624 25.2947 89.011 25.3796 89.5006 25.401V25.6554H85.4799V25.401C86.054 25.3796 86.2031 25.2947 86.2031 25.0402C86.2031 24.8067 86.0754 24.6372 85.6926 24.0007L82.6079 18.9946H76.6944V24.913C76.6944 25.316 76.8221 25.401 77.3748 25.401V25.6554H73.8438ZM76.6944 17.1282H84.2034C85.5435 17.1282 86.82 16.4916 86.82 14.4551C86.82 13.2034 85.8204 12.0793 83.7779 12.0793H76.6944V17.1282Z" fill="white"/>
<path d="M95.3702 10.2129V10.4673C95.0725 10.4673 94.9447 10.5517 94.9447 10.9553V20.4372C94.9447 22.7066 95.8807 24.0856 100.221 24.0856C104.56 24.0856 105.496 22.7066 105.496 20.4372V10.9553C105.496 10.5517 105.368 10.4673 105.07 10.4673V10.2129H108.176V10.4673C107.793 10.4673 107.665 10.5517 107.665 10.9553V20.4372C107.665 23.4491 105.836 25.8676 100.221 25.8676C94.6042 25.8676 92.7751 23.4491 92.7751 20.4372V10.9553C92.7751 10.5517 92.6473 10.4673 92.3496 10.4673V10.2129H95.3702Z" fill="white"/>
<path d="M111.684 25.6554V25.401C112.152 25.401 112.28 25.316 112.28 24.913V10.9553C112.28 10.5517 112.152 10.4673 111.684 10.4673V10.2129H121.384C124.426 10.2129 126.277 11.9521 126.277 14.4974C126.277 17.0854 124.468 18.8252 121.405 18.8252H114.449V24.913C114.449 25.316 114.577 25.401 115.045 25.401V25.6554H111.684ZM114.449 16.9582H121.341C123.405 16.9582 124.107 15.9614 124.107 14.3915C124.107 12.864 123.001 12.0793 121.469 12.0793H114.449V16.9582Z" fill="white"/>
<path d="M136.893 10C141.594 10 145.7 12.9696 145.7 17.9335C145.7 22.8973 141.594 25.8669 136.893 25.8669C132.192 25.8669 128.086 22.8973 128.086 17.9335C128.086 12.9696 132.192 10 136.893 10ZM136.893 24.0849C140.424 24.0849 143.53 22.0063 143.53 17.9335C143.53 13.8606 140.424 11.7814 136.893 11.7814C133.362 11.7814 130.256 13.8606 130.256 17.9335C130.256 22.0063 133.362 24.0849 136.893 24.0849Z" fill="white"/>
<path d="M174.311 31.0674H25V32.8285H174.311V31.0674Z" fill="#D4A466"/>
<path d="M174.311 68.2393H25V70.0004H174.311V68.2393Z" fill="#D4A466"/>
</svg>
